<?xml version="1.0" encoding="UTF-8" standalone="no"?>
<!-- Generator: Gravit.io -->
<svg xmlns="http://www.w3.org/2000/svg" xmlns:xlink="http://www.w3.org/1999/xlink" style="isolation:isolate" viewBox="0 0 32 32" width="32pt" height="32pt"><defs><clipPath id="_clipPath_diRCPrl0PUdtFt76jlmWt65FNUzkKZCo"><rect width="32" height="32"/></clipPath></defs><g clip-path="url(#_clipPath_diRCPrl0PUdtFt76jlmWt65FNUzkKZCo)"><g><g><path d=" M 16 2.087 C 14.775 5.13 13.988 7.043 12.587 10 C 13.462 10.957 14.513 12 16.175 13.13 C 14.337 12.435 13.113 11.652 12.238 10.87 C 10.4 14.609 7.6 19.826 2 30 C 6.375 27.391 9.875 25.826 13.113 25.217 C 12.938 24.609 12.85 24 12.85 23.304 L 12.85 23.217 C 12.938 20.348 14.425 18.174 16.175 18.348 C 17.925 18.435 19.325 20.87 19.238 23.739 L 19.063 25.217 C 22.213 25.826 25.625 27.478 30 29.913 L 27.638 25.565 C 26.5 24.696 25.275 23.565 22.825 22.261 C 24.488 22.696 25.713 23.217 26.675 23.739 C 19.15 9.913 18.538 8.087 16 2 L 16 2.087 Z " fill="rgb(51,255,0)"/></g></g></g></svg>